<svg width="48" height="48" viewBox="0 0 48 48" fill="none" xmlns="http://www.w3.org/2000/svg">
<path d="M43.8915 24.0004C43.8915 34.9879 34.9845 43.8951 23.9971 43.8951C13.0095 43.8951 4.10248 34.9879 4.10248 24.0004C4.10248 13.0129 13.0095 4.10585 23.9971 4.10585C34.9844 4.10585 43.8915 13.0129 43.8915 24.0004Z" fill="white" fill-opacity="0.2"/>
<g opacity="0.8">
<path d="M23.9335 14.7692L23.8106 15.1869V27.3066L23.9335 27.4293L29.5593 24.1038L23.9335 14.7692Z" fill="white"/>
<path d="M23.9335 14.7692L18.3077 24.1038L23.9335 27.4293V21.5468V14.7692Z" fill="white"/>
<path d="M23.9335 29.2597L23.8642 29.3441V33.6614L23.9335 33.8636L29.5627 25.9359L23.9335 29.2597Z" fill="white"/>
<path d="M23.9335 33.8637V29.2597L18.3077 25.9359L23.9335 33.8637Z" fill="white"/>
<path d="M23.9335 27.4292L29.5592 24.1039L23.9335 21.5468V27.4292Z" fill="white"/>
<path d="M18.3077 24.1038L23.9334 27.4293V21.5468L18.3077 24.1038Z" fill="white"/>
</g>
</svg>
