<svg width="25" height="24" viewBox="0 0 25 24" fill="none" xmlns="http://www.w3.org/2000/svg">
<path d="M10.7124 2.54327C11.1287 2.19242 11.6556 2 12.2 2C12.7444 2 13.2713 2.19242 13.6876 2.54327L20.6126 8.38285C21.1328 8.82195 21.4334 9.46726 21.4334 10.1474V20.2046C21.4334 20.6808 21.2442 21.1374 20.9075 21.4741C20.5708 21.8108 20.1141 22 19.638 22H16.0472C15.5711 22 15.1144 21.8108 14.7777 21.4741C14.441 21.1374 14.2519 20.6808 14.2519 20.2046L14.2519 14.562C14.2519 14.494 14.2248 14.4288 14.1767 14.3807C14.1286 14.3326 14.0634 14.3055 13.9954 14.3055H10.4046C10.3366 14.3055 10.2714 14.3326 10.2233 14.3807C10.1752 14.4288 10.1481 14.494 10.1481 14.562V20.2046C10.1481 20.6808 9.95899 21.1374 9.62229 21.4741C9.28559 21.8108 8.82893 22 8.35277 22H4.76202C4.52625 22 4.29278 21.9536 4.07496 21.8633C3.85713 21.7731 3.65921 21.6409 3.4925 21.4741C3.32578 21.3074 3.19354 21.1095 3.10331 20.8917C3.01308 20.6739 2.96664 20.4404 2.96664 20.2046L2.96664 10.1474C2.96664 9.46726 3.26724 8.82195 3.78739 8.38285L10.7124 2.54327ZM12.6955 3.72C12.5568 3.60324 12.3813 3.5392 12.2 3.5392C12.0187 3.5392 11.8432 3.60324 11.7045 3.72L4.77946 9.55856C4.69376 9.6307 4.62485 9.72069 4.57754 9.82222C4.53022 9.92376 4.50565 10.0344 4.50554 10.1464L4.50554 20.2036C4.50554 20.3452 4.62044 20.4601 4.76202 20.4601H8.35277C8.42079 20.4601 8.48603 20.4331 8.53413 20.385C8.58223 20.3369 8.60925 20.2716 8.60925 20.2036V14.561C8.60925 13.5689 9.41358 12.7656 10.4046 12.7656H13.9954C14.9864 12.7656 15.7908 13.5689 15.7908 14.561L15.7908 20.2036C15.7908 20.3452 15.9057 20.4601 16.0472 20.4601H19.638C19.706 20.4601 19.7712 20.4331 19.8193 20.385C19.8674 20.3369 19.8945 20.2716 19.8945 20.2036V10.1474C19.8943 10.0354 19.8698 9.92479 19.8225 9.82325C19.7752 9.72171 19.7062 9.63173 19.6205 9.55959L12.6955 3.72Z" fill="#4376FE"/>
</svg>
