<svg width="48" height="48" viewBox="0 0 48 48" fill="none" xmlns="http://www.w3.org/2000/svg">
<path opacity="0.5" d="M24 44C35.0457 44 44 35.0457 44 24C44 12.9543 35.0457 4 24 4C12.9543 4 4 12.9543 4 24C4 35.0457 12.9543 44 24 44Z" fill="#017F04"/>
<path d="M25.7017 27.1122L24.6199 23.8076L25.9715 22.0093L25.3367 20.0667L25.2949 20.0353L23.9644 21.8055L22.1478 16.2567L18.5834 18.5715L20.9505 25.815L19.9037 27.2076L20.5592 29.2097L21.6052 27.8183L23.0003 32.0872L32.4868 25.9266L31.6238 23.2663L25.7017 27.1122Z" fill="#017F04"/>
<path fill-rule="evenodd" clip-rule="evenodd" d="M24 37.8461C31.647 37.8461 37.8461 31.647 37.8461 24C37.8461 16.353 31.647 10.1538 24 10.1538C16.353 10.1538 10.1538 16.353 10.1538 24C10.1538 31.647 16.353 37.8461 24 37.8461Z" stroke="#017F04"/>
</svg>
