<svg width="25" height="24" viewBox="0 0 25 24" fill="none" xmlns="http://www.w3.org/2000/svg">
<path d="M12.6 2C10.6222 2 8.6888 2.58649 7.04431 3.6853C5.39982 4.78412 4.11809 6.3459 3.36122 8.17316C2.60434 10.0004 2.40631 12.0111 2.79216 13.9509C3.17801 15.8907 4.13042 17.6725 5.52894 19.0711C6.92747 20.4696 8.7093 21.422 10.6491 21.8078C12.5889 22.1937 14.5996 21.9957 16.4268 21.2388C18.2541 20.4819 19.8159 19.2002 20.9147 17.5557C22.0135 15.9112 22.6 13.9778 22.6 12C22.6 9.34783 21.5464 6.80429 19.6711 4.92893C17.7957 3.05357 15.2522 2 12.6 2V2ZM20.9333 11.1667L13.4333 11.1667V3.70833C15.3535 3.89145 17.1506 4.73499 18.5183 6.09508C19.886 7.45517 20.7395 9.24759 20.9333 11.1667V11.1667ZM12.1167 20.3333C10.0062 20.2352 8.01171 19.339 6.53684 17.8262C5.06198 16.3133 4.21682 14.2967 4.17235 12.1844C4.12788 10.0721 4.88742 8.02169 6.29731 6.44811C7.70719 4.87453 9.66216 3.89523 11.7667 3.70833V11.2083C11.7667 11.6504 11.9423 12.0743 12.2548 12.3868C12.5674 12.6994 12.9913 12.875 13.4333 12.875L20.9333 12.875C20.7116 15.0163 19.6699 16.9886 18.0264 18.379C16.3828 19.7693 14.2651 20.4696 12.1167 20.3333V20.3333Z" fill="#A2A2A2"/>
</svg>
