<svg width="48" height="48" viewBox="0 0 48 48" fill="none" xmlns="http://www.w3.org/2000/svg">
<path opacity="0.5" d="M24 44C35.0457 44 44 35.0457 44 24C44 12.9543 35.0457 4 24 4C12.9543 4 4 12.9543 4 24C4 35.0457 12.9543 44 24 44Z" fill="#1276A7"/>
<path d="M26.4184 15.2659C25.1666 15.9785 24.4254 17.2654 24.4254 18.6224C24.4254 19.335 24.7207 20.0532 25.0904 20.6939C25.3857 21.2662 25.5305 22.2651 24.4998 22.7654C23.7644 23.1918 22.8022 22.9075 22.3621 22.1931C21.9219 21.6207 21.4056 21.0484 20.7406 20.6219C19.4889 19.9093 18.0122 19.9093 16.7604 20.6219C15.5085 21.3345 14.7692 22.6246 14.7692 23.982C14.7692 25.3394 15.5047 26.6258 16.7601 27.3403C18.0118 28.0529 19.4885 28.0529 20.7404 27.3403C21.4053 26.9822 21.9215 26.4136 22.2875 25.7692C22.5828 25.2688 23.3945 24.6245 24.4252 25.1968C25.1607 25.6233 25.3817 26.5557 25.0158 27.2683C24.6462 27.9126 24.4252 28.6272 24.4252 29.3398C24.4252 30.6987 25.1607 31.9836 26.4182 32.6963C27.6699 33.4089 29.1466 33.4089 30.3985 32.6963C31.6503 31.9837 32.3916 30.6968 32.3916 29.3398C32.3916 27.9828 31.6542 26.696 30.3987 25.9815C29.7337 25.6233 28.9963 25.4812 28.1865 25.4812C27.5215 25.4812 26.6394 25.0547 26.6394 23.982C26.6394 23.1235 27.3044 22.4828 28.1865 22.4828C28.922 22.4828 29.7337 22.3407 30.3987 21.9825C31.6504 21.2699 32.3916 19.983 32.3916 18.6261C32.3916 17.2692 31.6542 15.9823 30.3987 15.2696C29.8081 14.9114 29.0725 14.7693 28.4078 14.7693C27.7466 14.7656 27.0054 14.9114 26.4187 15.2659" fill="#1276A7"/>
</svg>
