<svg width="25" height="24" viewBox="0 0 25 24" fill="none" xmlns="http://www.w3.org/2000/svg">
<path fill-rule="evenodd" clip-rule="evenodd" d="M21.1333 22C21.1333 22 22.8 22 22.8 20.3333C22.8 18.6667 21.1333 13.6667 12.8 13.6667C4.46667 13.6667 2.8 18.6667 2.8 20.3333C2.8 22 4.46667 22 4.46667 22H21.1333ZM4.50334 20.3333H21.0967C21.1045 20.3324 21.1123 20.3313 21.12 20.33L21.1333 20.3267C21.1317 19.9167 20.8767 18.6833 19.7467 17.5533C18.66 16.4667 16.615 15.3333 12.8 15.3333C8.98334 15.3333 6.94 16.4667 5.85334 17.5533C4.72334 18.6833 4.47 19.9167 4.46667 20.3267C4.47887 20.329 4.49109 20.3312 4.50334 20.3333ZM12.8 10.3333C13.6841 10.3333 14.5319 9.98214 15.157 9.35702C15.7821 8.7319 16.1333 7.88405 16.1333 7C16.1333 6.11595 15.7821 5.2681 15.157 4.64298C14.5319 4.01786 13.6841 3.66667 12.8 3.66667C11.9159 3.66667 11.0681 4.01786 10.443 4.64298C9.81786 5.2681 9.46667 6.11595 9.46667 7C9.46667 7.88405 9.81786 8.7319 10.443 9.35702C11.0681 9.98214 11.9159 10.3333 12.8 10.3333ZM17.8 7C17.8 8.32608 17.2732 9.59785 16.3355 10.5355C15.3979 11.4732 14.1261 12 12.8 12C11.4739 12 10.2022 11.4732 9.26447 10.5355C8.32679 9.59785 7.8 8.32608 7.8 7C7.8 5.67392 8.32679 4.40215 9.26447 3.46447C10.2022 2.52678 11.4739 2 12.8 2C14.1261 2 15.3979 2.52678 16.3355 3.46447C17.2732 4.40215 17.8 5.67392 17.8 7Z" fill="#A2A2A2"/>
</svg>
