<svg width="21" height="18" viewBox="0 0 21 18" fill="none" xmlns="http://www.w3.org/2000/svg">
<path fill-rule="evenodd" clip-rule="evenodd" d="M20.4 0.817202L20.4 17.181L19.4909 18L15.8546 18L14.9455 17.181L14.9455 0.819L15.8546 1.50997e-06L19.4909 1.82787e-06L20.4 0.817202ZM16.7636 1.6362L16.7636 16.3638L18.5818 16.3638L18.5818 1.6362L16.7636 1.6362ZM13.1273 4.3992L13.1273 17.2008L12.2182 18L8.58183 18L7.67274 17.2008L7.67274 4.3992L8.58183 3.6L12.2182 3.6L13.1273 4.3992ZM9.49092 5.2002L9.49092 16.398L11.3091 16.398L11.3091 5.1984L9.49092 5.1984L9.49092 5.2002ZM5.85455 17.2278L5.85456 7.9704L4.94546 7.2L1.3091 7.2L0.400008 7.9704L0.400007 17.2278L1.3091 18L4.94546 18L5.85455 17.2278ZM2.21819 16.4574L2.21819 8.7426L4.03637 8.7426L4.03637 16.4574L2.21819 16.4574Z" fill="#A2A2A2"/>
</svg>
